<?xml version="1.0" standalone="no"?>
<!DOCTYPE svg PUBLIC "-//W3C//DTD SVG 20010904//EN"
 "http://www.w3.org/TR/2001/REC-SVG-20010904/DTD/svg10.dtd">
<svg version="1.0" xmlns="http://www.w3.org/2000/svg"
 width="250.000000pt" height="43.000000pt" viewBox="0 0 250.000000 43.000000"
 preserveAspectRatio="xMidYMid meet">

<g transform="translate(0.000000,43.000000) scale(0.100000,-0.100000)"
fill="#06158F" stroke="none">
<path d="M2245 339 c-94 -15 -113 -34 -144 -146 -18 -68 -18 -73 -3 -83 9 -5
12 -10 6 -10 -5 0 -15 5 -22 12 -9 10 -16 8 -30 -5 -22 -23 -11 -30 81 -53 58
-14 76 -15 110 -4 23 7 47 16 52 20 6 5 36 13 69 19 61 11 90 27 80 42 -3 5
-9 7 -12 5 -4 -2 -6 13 -4 34 5 47 -27 122 -61 145 -36 24 -77 32 -122 24z
m-25 -13 c0 -2 -8 -10 -17 -17 -16 -13 -17 -12 -4 4 13 16 21 21 21 13z"/>
<path d="M98 303 c-9 -2 -20 -14 -24 -26 -4 -12 -12 -25 -18 -29 -8 -6 -7 -8
2 -8 8 0 12 -18 12 -55 0 -42 3 -55 15 -55 11 0 15 13 15 54 0 49 2 55 23 59
l22 4 -22 2 c-30 1 -33 41 -3 41 11 0 20 5 20 10 0 10 -12 11 -42 3z"/>
<path d="M262 244 c-31 -21 -31 -87 0 -108 48 -34 108 -4 108 54 0 58 -60 88
-108 54z m62 -10 c11 -4 16 -19 16 -45 0 -33 -4 -40 -27 -45 -42 -11 -66 33
-43 77 11 20 27 23 54 13z"/>
<path d="M526 244 c-9 -8 -16 -11 -16 -5 0 6 -7 11 -15 11 -12 0 -15 -13 -15
-60 0 -46 3 -60 14 -60 10 0 16 14 18 43 2 32 8 44 26 52 23 10 28 20 13 30
-5 3 -17 -2 -25 -11z"/>
<path d="M680 240 c-41 -41 -12 -120 43 -120 27 0 65 25 54 36 -4 4 -13 2 -19
-4 -18 -18 -56 -14 -68 7 -9 18 -6 20 42 23 60 4 69 17 34 53 -30 30 -59 32
-86 5z m78 -22 c3 -15 -4 -18 -32 -18 -34 0 -47 15 -29 34 13 13 58 1 61 -16z"/>
<path d="M945 250 c-4 -6 -15 -8 -26 -5 -17 6 -19 1 -19 -54 0 -34 4 -61 10
-61 6 0 10 18 10 39 0 36 19 71 39 71 18 0 31 -28 31 -67 0 -58 17 -55 22 5 3
32 0 52 -10 65 -17 19 -47 23 -57 7z"/>
<path d="M1033 253 c-7 -2 -13 -9 -13 -15 0 -6 7 -7 16 -4 27 10 44 -13 44
-60 0 -24 5 -44 10 -44 14 0 12 104 -2 118 -12 12 -33 14 -55 5z"/>
<path d="M1235 235 c-14 -13 -25 -33 -25 -45 0 -26 43 -70 68 -70 34 0 65 34
65 70 0 22 -7 39 -22 52 -31 25 -57 23 -86 -7z m74 -9 c31 -37 -9 -103 -46
-80 -37 23 -24 94 17 94 10 0 23 -6 29 -14z"/>
<path d="M1502 244 c-12 -8 -22 -10 -22 -5 0 6 -4 11 -10 11 -6 0 -10 -27 -10
-60 0 -33 4 -60 10 -60 6 0 10 14 10 31 0 38 16 69 35 69 8 0 15 7 15 15 0 19
0 19 -28 -1z"/>
<path d="M1659 242 c-45 -37 -16 -122 41 -122 20 0 72 39 52 40 -7 0 -21 -6
-32 -12 -15 -9 -25 -10 -37 -2 -35 22 -26 34 26 34 47 0 51 2 51 24 0 26 -33
56 -61 56 -9 0 -27 -8 -40 -18z m69 -14 c21 -21 13 -28 -28 -28 -22 0 -40 4
-40 8 0 14 23 32 40 32 9 0 21 -5 28 -12z"/>
</g>
</svg>
